<svg width="250" height="250" viewBox="0 0 250 250" fill="none" xmlns="http://www.w3.org/2000/svg">
  <path
    d="M125 44.25C138.128 44.25 150.719 49.465 160.002 58.748C169.285 68.0311 174.5 80.6218 174.5 93.75C174.5 106.878 169.285 119.469 160.002 128.752C150.719 138.035 138.128 143.25 125 143.25C111.872 143.25 99.2811 138.035 89.998 128.752C80.715 119.469 75.5 106.878 75.5 93.75C75.5 80.6218 80.715 68.0311 89.998 58.748C99.2811 49.465 111.872 44.25 125 44.25ZM125 55.75C114.922 55.75 105.256 59.7535 98.1299 66.8799C91.0035 74.0063 87 83.6718 87 93.75C87 103.828 91.0035 113.494 98.1299 120.62C105.256 127.747 114.922 131.75 125 131.75C129.99 131.75 134.932 130.767 139.542 128.857C144.152 126.948 148.341 124.149 151.87 120.62C155.399 117.091 158.198 112.902 160.107 108.292C162.017 103.682 163 98.7402 163 93.75C163 88.7598 162.017 83.8184 160.107 79.208C158.198 74.5976 155.399 70.4085 151.87 66.8799C148.341 63.3513 144.152 60.5523 139.542 58.6426C134.932 56.7329 129.99 55.75 125 55.75Z"
    fill="#EEEEEE" />
  <path
    d="M125 0.5C193.761 0.5 249.5 56.2386 249.5 125C249.5 193.761 193.761 249.5 125 249.5C56.2386 249.5 0.5 193.761 0.5 125C0.5 56.2386 56.2386 0.5 125 0.5ZM178.719 191.146C137.965 185.722 108.979 185.406 67.4844 191.468C60.7639 192.448 55.7509 198.307 55.75 205.279C55.7408 208.336 56.7417 211.311 58.5967 213.741L58.5977 213.743C60.141 215.745 61.6641 217.685 63.166 219.562L63.2158 219.625L63.2822 219.668C81.6262 231.667 103.079 238.038 124.999 237.999L125.001 238L125 237.999C146.409 238.039 167.384 231.962 185.456 220.484L185.519 220.444L185.567 220.388C187.428 218.214 189.319 215.957 191.242 213.617H191.243C193.18 211.251 194.25 208.226 194.25 205.112C194.266 201.859 193.107 198.71 190.986 196.243C188.865 193.776 185.923 192.157 182.703 191.687L182.7 191.686L178.719 191.146ZM125 12C62.5929 12 12.0005 62.5921 12 124.999C11.9601 154.185 23.2521 182.247 43.4961 203.271L44.2568 204.062L44.3545 202.97C45.3686 191.64 53.7909 182.106 65.2734 180.175L65.8223 180.089C109.863 173.653 140.466 174.232 184.275 180.295C195.968 181.912 204.677 191.481 205.658 202.955L205.752 204.054L206.517 203.259C226.437 182.564 237.685 155.054 237.993 126.366L238 124.999C237.999 62.5921 187.407 12 125 12Z"
    fill="#EEEEEE" />
</svg>